<svg width="18" height="18" viewBox="0 0 18 18" fill="none" xmlns="http://www.w3.org/2000/svg">
<path d="M13.8627 9.50729C13.8387 8.04769 14.4673 6.91166 15.7467 6.09871C15.0253 5.04659 13.9614 4.45521 12.5543 4.32307C12.0539 4.27584 11.4142 4.39442 10.6358 4.68181C9.79828 4.99333 9.32692 5.14808 9.22272 5.14808C9.00182 5.14808 8.57754 5.01745 7.94839 4.75366C7.32074 4.49038 6.78576 4.35925 6.34395 4.35925C5.59959 4.3713 4.90732 4.57781 4.26815 4.97826C3.62848 5.37921 3.11705 5.92637 2.73384 6.61924C2.24395 7.47992 2 8.50843 2 9.70424C2 10.7805 2.17983 11.8562 2.54049 12.9335C2.87761 13.962 3.3084 14.8648 3.83135 15.6411C4.2962 16.3471 4.70445 16.8611 5.05259 17.1846C5.55301 17.6866 6.06444 17.9262 6.5884 17.9016C6.92552 17.8896 7.36683 17.7639 7.91383 17.5243C8.42526 17.2982 8.9372 17.1846 9.44914 17.1846C9.92551 17.1846 10.4194 17.2977 10.9319 17.5243C11.5014 17.7639 11.9667 17.8835 12.3274 17.8835C12.8624 17.8599 13.3623 17.6268 13.8282 17.1851C13.9905 17.0409 14.1678 16.844 14.3596 16.5927C14.5515 16.341 14.7639 16.0421 14.9968 15.6959C15.1591 15.4452 15.3189 15.1759 15.4767 14.8885C15.634 14.6016 15.7762 14.2971 15.904 13.9735C15.9616 13.8419 16.0137 13.7077 16.0607 13.57C16.1068 13.4329 16.1534 13.2927 16.2 13.149C15.7697 12.9581 15.38 12.6878 15.0314 12.3411C14.265 11.5769 13.8752 10.6318 13.8632 9.50779L13.8627 9.50729Z" fill="#221E1F"/>
<path d="M11.6652 2.87046C12.2818 2.09318 12.5904 1.25611 12.5904 0.358745V0.179875C12.5904 0.119582 12.5843 0.0602933 12.5728 0C12.1425 0.0241173 11.6862 0.161787 11.2033 0.412506C10.7209 0.664231 10.3227 0.981273 10.0081 1.36363C9.38048 2.1173 9.06641 2.92422 9.06641 3.78541V3.95524C9.06641 4.0095 9.07242 4.06628 9.08394 4.12657C10.0497 4.22204 10.9103 3.8035 11.6657 2.87096L11.6652 2.87046Z" fill="#221E1F"/>
</svg>
