<svg width="120" height="120" viewBox="0 0 120 120" fill="none" xmlns="http://www.w3.org/2000/svg">
<path d="M14.8339 104.146C15.6552 104.292 16.3519 104.725 16.9239 105.444C17.4959 106.162 17.7819 106.976 17.7819 107.886C17.7819 108.663 17.5766 109.367 17.1659 109.998C16.7699 110.614 16.1906 111.105 15.4279 111.472C14.6652 111.824 13.7779 112 12.7659 112H6.6499V96.7097H12.4799C13.5212 96.7097 14.4159 96.8857 15.1639 97.2377C15.9119 97.5897 16.4766 98.0664 16.8579 98.6677C17.2392 99.2544 17.4299 99.9144 17.4299 100.648C17.4299 101.528 17.1952 102.261 16.7259 102.848C16.2566 103.434 15.6259 103.867 14.8339 104.146ZM9.1579 103.134H12.2599C13.0812 103.134 13.7192 102.95 14.1739 102.584C14.6432 102.202 14.8779 101.66 14.8779 100.956C14.8779 100.266 14.6432 99.7311 14.1739 99.3497C13.7192 98.9537 13.0812 98.7557 12.2599 98.7557H9.1579V103.134ZM12.5459 109.954C13.3966 109.954 14.0639 109.748 14.5479 109.338C15.0319 108.927 15.2739 108.355 15.2739 107.622C15.2739 106.874 15.0172 106.28 14.5039 105.84C13.9906 105.4 13.3086 105.18 12.4579 105.18H9.1579V109.954H12.5459Z" fill="white"/>
<path d="M27.4813 112.154C26.0587 112.154 24.746 111.824 23.5433 111.164C22.3553 110.489 21.4093 109.558 20.7053 108.37C20.016 107.167 19.6713 105.818 19.6713 104.322C19.6713 102.826 20.016 101.484 20.7053 100.296C21.4093 99.1077 22.3553 98.1837 23.5433 97.5237C24.746 96.8491 26.0587 96.5117 27.4813 96.5117C28.9187 96.5117 30.2313 96.8491 31.4193 97.5237C32.622 98.1837 33.568 99.1077 34.2573 100.296C34.9467 101.484 35.2913 102.826 35.2913 104.322C35.2913 105.818 34.9467 107.167 34.2573 108.37C33.568 109.558 32.622 110.489 31.4193 111.164C30.2313 111.824 28.9187 112.154 27.4813 112.154ZM27.4813 109.976C28.4933 109.976 29.3953 109.748 30.1873 109.294C30.9793 108.824 31.5953 108.164 32.0353 107.314C32.49 106.448 32.7173 105.451 32.7173 104.322C32.7173 103.192 32.49 102.202 32.0353 101.352C31.5953 100.501 30.9793 99.8484 30.1873 99.3937C29.3953 98.9391 28.4933 98.7117 27.4813 98.7117C26.4693 98.7117 25.5673 98.9391 24.7753 99.3937C23.9833 99.8484 23.36 100.501 22.9053 101.352C22.4653 102.202 22.2453 103.192 22.2453 104.322C22.2453 105.451 22.4653 106.448 22.9053 107.314C23.36 108.164 23.9833 108.824 24.7753 109.294C25.5673 109.748 26.4693 109.976 27.4813 109.976Z" fill="white"/>
<path d="M44.7333 112.154C43.3106 112.154 41.9979 111.824 40.7953 111.164C39.6073 110.489 38.6613 109.558 37.9573 108.37C37.2679 107.167 36.9233 105.818 36.9233 104.322C36.9233 102.826 37.2679 101.484 37.9573 100.296C38.6613 99.1077 39.6073 98.1837 40.7953 97.5237C41.9979 96.8491 43.3106 96.5117 44.7333 96.5117C46.1706 96.5117 47.4833 96.8491 48.6713 97.5237C49.8739 98.1837 50.8199 99.1077 51.5093 100.296C52.1986 101.484 52.5433 102.826 52.5433 104.322C52.5433 105.818 52.1986 107.167 51.5093 108.37C50.8199 109.558 49.8739 110.489 48.6713 111.164C47.4833 111.824 46.1706 112.154 44.7333 112.154ZM44.7333 109.976C45.7453 109.976 46.6473 109.748 47.4393 109.294C48.2313 108.824 48.8473 108.164 49.2873 107.314C49.7419 106.448 49.9693 105.451 49.9693 104.322C49.9693 103.192 49.7419 102.202 49.2873 101.352C48.8473 100.501 48.2313 99.8484 47.4393 99.3937C46.6473 98.9391 45.7453 98.7117 44.7333 98.7117C43.7213 98.7117 42.8193 98.9391 42.0273 99.3937C41.2353 99.8484 40.6119 100.501 40.1573 101.352C39.7173 102.202 39.4973 103.192 39.4973 104.322C39.4973 105.451 39.7173 106.448 40.1573 107.314C40.6119 108.164 41.2353 108.824 42.0273 109.294C42.8193 109.748 43.7213 109.976 44.7333 109.976Z" fill="white"/>
<path d="M63.4372 112L57.5192 105.158V112H55.0112V96.7097H57.5192V103.684L63.4592 96.7097H66.6052L59.9612 104.366L66.7152 112H63.4372Z" fill="white"/>
<path d="M78.1511 108.876H71.7491L70.6491 112H68.0311L73.5091 96.6877H76.4131L81.8911 112H79.2511L78.1511 108.876ZM77.4471 106.83L74.9611 99.7237L72.4531 106.83H77.4471Z" fill="white"/>
<path d="M96.8349 112H94.327L86.7809 100.582V112H84.2729V96.6877H86.7809L94.327 108.084V96.6877H96.8349V112Z" fill="white"/>
<path d="M105.122 96.7097C106.75 96.7097 108.173 97.0251 109.39 97.6557C110.622 98.2717 111.568 99.1664 112.228 100.34C112.903 101.498 113.24 102.855 113.24 104.41C113.24 105.964 112.903 107.314 112.228 108.458C111.568 109.602 110.622 110.482 109.39 111.098C108.173 111.699 106.75 112 105.122 112H100.128V96.7097H105.122ZM105.122 109.954C106.912 109.954 108.283 109.47 109.236 108.502C110.19 107.534 110.666 106.17 110.666 104.41C110.666 102.635 110.19 101.249 109.236 100.252C108.283 99.2544 106.912 98.7557 105.122 98.7557H102.636V109.954H105.122Z" fill="white"/>
<g clip-path="url(#clip0_1976_25800)">
<path d="M84.7944 19.4178C88.2217 19.4178 91.0001 16.6379 91.0001 13.2089C91.0001 9.77981 88.2217 7 84.7944 7C81.367 7 78.5886 9.77981 78.5886 13.2089C78.5886 16.6379 81.367 19.4178 84.7944 19.4178Z" fill="#FF540B"/>
<path d="M69.6385 28.2628C69.4445 27.278 69.1957 26.2603 68.8701 25.2133C67.637 21.6952 65.6245 18.5358 63.0412 15.9512C58.5991 11.5106 52.4702 8.75391 45.7229 8.75391H30V18.0709H45.7229C49.8979 18.0709 53.6997 19.7842 56.4549 22.5408C57.2123 23.2986 57.8893 24.1333 58.4747 25.0339C58.4747 25.0339 59.3236 25.8649 59.9017 27.9443H30V57.8063H45.7229C52.4702 57.8063 58.5991 55.0496 63.0412 50.6053C64.3036 49.3423 65.4232 47.9438 66.3892 46.4355C66.3892 46.4355 68.8188 43.2396 69.7775 37.8214C72.3352 38.5353 74.6331 39.9045 76.4663 41.7386C79.2252 44.4952 80.9376 48.2989 80.9376 52.476C80.9376 56.6531 79.2252 60.4567 76.4663 63.2134C73.7073 65.9701 69.9092 67.6834 65.7343 67.6834H30V77.0003H65.7343C72.4816 77.0003 78.6141 74.2437 83.0525 69.7994C87.4946 65.355 90.2499 59.223 90.2499 52.4723C90.2499 45.7216 87.4946 39.5896 83.0525 35.1453C79.4886 31.5796 74.8307 29.1012 69.6421 28.2628H69.6385ZM45.7229 48.4893H39.3123V37.265H59.9127C59.7444 38.1765 59.5285 39.143 59.2541 40.1754C58.5223 41.5995 57.5746 42.8954 56.4513 44.0193C53.6923 46.7796 49.8942 48.4893 45.7193 48.4893H45.7229Z" fill="white"/>
</g>
<defs>
<clipPath id="clip0_1976_25800">
<rect width="61" height="70" fill="white" transform="translate(30 7)"/>
</clipPath>
</defs>
</svg>
