<svg width="61" height="70" viewBox="0 0 61 70" fill="none" xmlns="http://www.w3.org/2000/svg">
<g clip-path="url(#clip0_1533_22604)">
<path d="M54.7944 12.4178C58.2217 12.4178 61.0001 9.63795 61.0001 6.20888C61.0001 2.77981 58.2217 0 54.7944 0C51.367 0 48.5886 2.77981 48.5886 6.20888C48.5886 9.63795 51.367 12.4178 54.7944 12.4178Z" fill="#FF540B"/>
<path d="M39.6385 21.2623C39.4445 20.2776 39.1957 19.2598 38.8701 18.2128C37.637 14.6947 35.6245 11.5353 33.0412 8.95074C28.5991 4.51007 22.4702 1.75342 15.7229 1.75342H0V11.0704H15.7229C19.8979 11.0704 23.6997 12.7837 26.4549 15.5404C27.2123 16.2982 27.8893 17.1328 28.4747 18.0334C28.4747 18.0334 29.3236 18.8644 29.9017 20.9438H0V50.8058H15.7229C22.4702 50.8058 28.5991 48.0491 33.0412 43.6048C34.3036 42.3418 35.4232 40.9433 36.3892 39.435C36.3892 39.435 38.8188 36.2391 39.7775 30.8209C42.3352 31.5348 44.6331 32.904 46.4663 34.7381C49.2252 37.4948 50.9376 41.2984 50.9376 45.4755C50.9376 49.6526 49.2252 53.4563 46.4663 56.2129C43.7073 58.9696 39.9092 60.6829 35.7343 60.6829H0V69.9999H35.7343C42.4816 69.9999 48.6141 67.2432 53.0525 62.7989C57.4946 58.3545 60.2499 52.2225 60.2499 45.4718C60.2499 38.7211 57.4946 32.5891 53.0525 28.1448C49.4886 24.5791 44.8307 22.1007 39.6421 21.2623H39.6385ZM15.7229 41.4888H9.31228V30.2645H29.9127C29.7444 31.176 29.5285 32.1425 29.2541 33.1749C28.5223 34.599 27.5746 35.8949 26.4513 37.0188C23.6923 39.7791 19.8942 41.4888 15.7193 41.4888H15.7229Z" fill="white"/>
</g>
<defs>
<clipPath id="clip0_1533_22604">
<rect width="61" height="70" fill="white"/>
</clipPath>
</defs>
</svg>
