<svg width="22" height="22" viewBox="0 0 22 22" fill="none" xmlns="http://www.w3.org/2000/svg">
<path d="M2.94727 9.29733V18.2813C2.94727 19.3859 3.8427 20.2813 4.94727 20.2813H17.0497C18.1543 20.2813 19.0497 19.3859 19.0497 18.2813V9.23633" stroke="#222222" stroke-width="1.5" stroke-linecap="round"/>
<path d="M7.86719 20.1253V14.7939C7.86719 13.9655 8.53876 13.2939 9.36719 13.2939H12.6292C13.4577 13.2939 14.1292 13.9655 14.1292 14.7939V20.1253" stroke="#222222" stroke-width="1.5"/>
<path fill-rule="evenodd" clip-rule="evenodd" d="M15.4714 9.16772C14.9381 9.80899 14.1342 10.2172 13.2349 10.2172C12.3357 10.2172 11.5318 9.80899 10.9985 9.16772C10.4652 9.80899 9.66129 10.2172 8.76204 10.2172C7.86279 10.2172 7.0589 9.80899 6.5256 9.16772C5.99229 9.80899 5.1884 10.2172 4.28915 10.2172C2.91369 10.2172 1.76279 9.26275 1.45971 7.98075C1.32249 7.40037 1.53592 6.87225 1.76637 6.51011L4.09039 2.85808C4.54196 2.14847 5.32477 1.71875 6.16588 1.71875H15.8311C16.6722 1.71875 17.455 2.14847 17.9066 2.85808L20.2306 6.51011C20.4611 6.87225 20.6745 7.40037 20.5373 7.98075C20.2342 9.26275 19.0833 10.2172 17.7078 10.2172C16.8086 10.2172 16.0047 9.80899 15.4714 9.16772ZM5.22247 3.5785C5.42773 3.25595 5.78356 3.06062 6.16588 3.06062H15.8311C16.2134 3.06062 16.5692 3.25595 16.7745 3.5785L19.0985 7.23053C19.2334 7.44253 19.2508 7.59012 19.2314 7.67202C19.0682 8.36229 18.4471 8.87538 17.7078 8.87538C16.8432 8.87538 16.1423 8.17448 16.1423 7.30987H14.8004C14.8004 8.17448 14.0995 8.87538 13.2349 8.87538C12.3708 8.87538 11.6701 8.1752 11.6694 7.3112V7.30987H10.3276L10.3276 7.3112C10.3268 8.1752 9.62621 8.87538 8.76204 8.87538C7.89743 8.87538 7.19653 8.17448 7.19653 7.30987H5.85466C5.85466 8.17448 5.15376 8.87538 4.28915 8.87538C3.54985 8.87538 2.92877 8.36228 2.76558 7.67202C2.74621 7.59011 2.76355 7.44253 2.89846 7.23053L5.22247 3.5785Z" fill="#222222"/>
</svg>
