<svg width="22" height="22" viewBox="0 0 22 22" fill="none" xmlns="http://www.w3.org/2000/svg">
<path d="M11.0001 5.83392L12.0891 4.74113C13.9 2.92392 16.7077 2.86865 18.5803 4.61335V4.61335C20.6876 6.57682 20.797 10.0331 18.8186 12.1438L16.61 14.4999L12.2677 18.5244C11.5403 19.1986 10.4587 19.1988 9.73106 18.5248L8.35178 17.2473" stroke="#222222" stroke-width="1.5" stroke-linecap="round"/>
<path d="M10.9992 5.83369L9.91058 4.74116C8.09971 2.92381 5.29196 2.86845 3.4194 4.61318V4.61318C1.31212 6.5766 1.20275 10.0328 3.18109 12.1434L5.38975 14.4997L9.73129 18.5241C10.4586 19.1984 11.5402 19.1987 12.2678 18.5249L13.6479 17.247" stroke="#222222" stroke-width="1.5" stroke-linecap="round"/>
</svg>
