<svg width="22" height="22" viewBox="0 0 22 22" fill="none" xmlns="http://www.w3.org/2000/svg">
<g clip-path="url(#clip0_3126_35740)">
<path d="M18 7C18.7956 7 19.5587 7.36875 20.1213 8.02513C20.6839 8.6815 21 9.57174 21 10.5C21 11.4283 20.6839 12.3185 20.1213 12.9749C19.5587 13.6313 18.7956 14 18 14" stroke="#222222" stroke-width="1.5" stroke-linecap="round" stroke-linejoin="round"/>
<path d="M8 7V18.9167C8 19.204 7.89464 19.4795 7.70711 19.6827C7.51957 19.8859 7.26522 20 7 20H6C5.73478 20 5.48043 19.8859 5.29289 19.6827C5.10536 19.4795 5 19.204 5 18.9167V13.5" stroke="#222222" stroke-width="1.5" stroke-linecap="round" stroke-linejoin="round"/>
<path d="M11.2 6.56085L16.3272 2.23898C16.4762 2.11346 16.6574 2.03349 16.8497 2.00845C17.0421 1.9834 17.2374 2.01432 17.413 2.09757C17.5885 2.18083 17.737 2.31297 17.841 2.47852C17.9449 2.64406 18.0001 2.83615 18 3.03228V16.9677C18.0001 17.1638 17.9449 17.3559 17.841 17.5215C17.737 17.687 17.5885 17.8192 17.413 17.9024C17.2374 17.9857 17.0421 18.0166 16.8497 17.9916C16.6574 17.9665 16.4762 17.8865 16.3272 17.761L11.2 13.4392H2.13333C1.83275 13.4392 1.54449 13.3184 1.33195 13.1034C1.1194 12.8884 1 12.5968 1 12.2928V7.70723C1 7.40319 1.1194 7.1116 1.33195 6.89662C1.54449 6.68163 1.83275 6.56085 2.13333 6.56085H11.2" stroke="#222222" stroke-width="1.5" stroke-linecap="round" stroke-linejoin="round"/>
</g>
<defs>
<clipPath id="clip0_3126_35740">
<rect width="22" height="22" fill="white"/>
</clipPath>
</defs>
</svg>
