<svg width="22" height="22" viewBox="0 0 22 22" fill="none" xmlns="http://www.w3.org/2000/svg">
<path d="M8.03906 18.1035C8.03906 18.5618 8.10639 19.3408 8.70358 19.7555C9.30077 20.1702 10.0343 20.3952 10.7891 20.3952C11.5439 20.3952 12.2774 20.1702 12.8745 19.7555C13.4717 19.3408 13.5391 18.5618 13.5391 18.1035" stroke="#222222" stroke-width="1.5" stroke-linecap="round" stroke-linejoin="round"/>
<path d="M4.60076 9.39551C4.60076 5.97825 7.371 3.20801 10.7883 3.20801V1.83301C6.61161 1.83301 3.22576 5.21885 3.22576 9.39551V12.2439C3.22576 12.9238 3.00525 13.5854 2.59732 14.1293L2.35618 14.4508C2.10009 14.7922 1.72093 15.395 1.86452 16.1018C2.09334 17.2281 3.0733 17.6271 3.88353 17.773C4.55165 17.8933 5.32744 17.8845 5.94527 17.8776C6.07949 17.8761 6.20628 17.8747 6.32287 17.8747H10.7883V16.4997H6.32287C6.17314 16.4997 6.0228 16.5011 5.87291 16.5026C5.25936 16.5086 4.6532 16.5144 4.12713 16.4197C3.46949 16.3014 3.26506 16.0893 3.212 15.8281C3.20497 15.7935 3.20446 15.7348 3.24312 15.6347C3.28328 15.5307 3.35494 15.4108 3.45618 15.2758L3.69732 14.9543C4.28375 14.1723 4.60076 13.2213 4.60076 12.2439V9.39551Z" fill="#222222"/>
<path d="M16.9765 9.39551C16.9765 5.97825 14.2055 3.20801 10.7883 3.20801V1.83301C14.9649 1.83301 18.3515 5.21885 18.3515 9.39551V12.2439C18.3515 12.9238 18.572 13.5854 18.9799 14.1293L19.2211 14.4508C19.4772 14.7922 19.8563 15.395 19.7127 16.1018C19.4839 17.2281 18.504 17.6271 17.6937 17.773C17.0256 17.8933 16.2498 17.8845 15.632 17.8776C15.4978 17.8761 15.371 17.8747 15.2544 17.8747H10.7883V16.4997H15.2544C15.4041 16.4997 15.5544 16.5011 15.7043 16.5026C16.3179 16.5086 16.924 16.5144 17.4501 16.4197C18.1078 16.3014 18.3122 16.0893 18.3653 15.8281C18.3723 15.7935 18.3728 15.7348 18.3341 15.6347C18.294 15.5307 18.2223 15.4108 18.1211 15.2758L17.8799 14.9543C17.2935 14.1723 16.9765 13.2213 16.9765 12.2439V9.39551Z" fill="#222222"/>
</svg>
