<svg width="28" height="28" viewBox="0 0 28 28" fill="none" xmlns="http://www.w3.org/2000/svg">
<path d="M9.33398 6.41699L9.63878 4.58819C9.79951 3.62382 10.6339 2.91699 11.6116 2.91699L16.3897 2.91699C17.3674 2.91699 18.2018 3.62382 18.3625 4.58819L18.6673 6.41699" stroke="white" stroke-width="1.5" stroke-linecap="round"/>
<path d="M9.33366 6.41699H4.33366C3.22909 6.41699 2.33366 7.31242 2.33366 8.41699V23.0837C2.33366 24.1882 3.22909 25.0837 4.33366 25.0837H23.667C24.7716 25.0837 25.667 24.1882 25.667 23.0837V8.41699C25.667 7.31242 24.7716 6.41699 23.667 6.41699H18.667" stroke="white" stroke-width="1.5" stroke-linecap="round"/>
<path d="M18.9125 15.8478C18.9125 13.1273 16.7131 10.9219 14.0002 10.9219C11.2872 10.9219 9.08789 13.1273 9.08789 15.8478C9.08789 18.5683 11.2872 20.7737 14.0002 20.7737C16.7131 20.7737 18.9125 18.5683 18.9125 15.8478Z" stroke="white" stroke-width="1.5"/>
</svg>
