<svg width="22" height="22" viewBox="0 0 22 22" fill="none" xmlns="http://www.w3.org/2000/svg">
<path d="M11 9V12M11 14.99V15" stroke="#222222" stroke-width="1.5" stroke-linecap="round" stroke-linejoin="round"/>
<path d="M4.00781 19H18.0133C18.3397 18.9977 18.6606 18.9158 18.948 18.7613C19.2354 18.6069 19.4806 18.3847 19.6621 18.114C19.8436 17.8433 19.956 17.5325 19.9895 17.2085C20.0229 16.8845 19.9764 16.5573 19.854 16.2554L12.7512 4.02971C12.5782 3.71773 12.3245 3.45768 12.0167 3.27659C11.7088 3.09551 11.3579 3 11.0005 3C10.6431 3 10.2923 3.09551 9.98438 3.27659C9.67651 3.45768 9.42287 3.71773 9.24985 4.02971L2.14708 16.2554C2.02698 16.5504 1.97935 16.8698 2.00818 17.1869C2.03701 17.504 2.14145 17.8096 2.3128 18.0782C2.48414 18.3469 2.71742 18.5707 2.99314 18.731C3.26886 18.8914 3.57904 18.9836 3.89776 19" stroke="#222222" stroke-width="1.5" stroke-linecap="round" stroke-linejoin="round"/>
</svg>
