<svg width="22" height="22" viewBox="0 0 22 22" fill="none" xmlns="http://www.w3.org/2000/svg">
<path d="M20.1668 10.9997C20.1668 5.93706 16.0628 1.83301 11.0002 1.83301C5.93755 1.83301 1.8335 5.93706 1.8335 10.9997C1.8335 16.0623 5.93755 20.1663 11.0002 20.1663C16.0628 20.1663 20.1668 16.0623 20.1668 10.9997Z" stroke="#222222" stroke-width="1.5"/>
<path d="M13.75 9.16602C13.75 10.6848 12.5188 11.916 11 11.916C9.48124 11.916 8.25 10.6848 8.25 9.16602C8.25 7.64723 9.48124 6.41602 11 6.41602C12.5188 6.41602 13.75 7.64723 13.75 9.16602Z" stroke="#222222" stroke-width="1.5"/>
<path d="M16.5 18.3327C16.5 16.3076 14.0376 14.666 11 14.666C7.96243 14.666 5.5 16.3076 5.5 18.3327" stroke="#222222" stroke-width="1.5" stroke-linecap="round"/>
</svg>
