<svg width="13" height="12" viewBox="0 0 13 12" fill="none" xmlns="http://www.w3.org/2000/svg">
<path d="M7.88141 5.9736C7.88141 6.74062 7.26768 7.37494 6.5083 7.37494C5.74892 7.37494 5.13086 6.74062 5.13086 5.9736C5.13086 5.20659 5.74892 4.62494 6.5083 4.62494C7.26768 4.62494 7.88141 5.20659 7.88141 5.9736Z" stroke="#666666"/>
<path d="M6.32617 1H6.67704C6.97283 1 7.24074 1.1746 7.36019 1.4452C7.81828 2.48307 8.89363 3.10689 10.022 2.98934L10.1201 2.97912C10.4248 2.94738 10.7201 3.09564 10.8767 3.35893L10.997 3.56134C11.1551 3.82726 11.1388 4.16196 10.9557 4.41129C10.2605 5.3575 10.2645 6.65431 10.9551 7.60381C11.1377 7.85481 11.155 8.19293 10.9964 8.45971L10.877 8.66054C10.7205 8.92376 10.4243 9.07097 10.12 9.03683L10.0236 9.02601C8.89607 8.89951 7.81703 9.51978 7.35889 10.5577C7.24024 10.8266 6.97409 11 6.68025 11H6.32295C6.02911 11 5.76297 10.8266 5.64432 10.5577C5.18618 9.51978 4.10713 8.89951 2.97964 9.02601L2.88699 9.0364C2.58083 9.07075 2.28323 8.92122 2.12806 8.65507L2.01344 8.45846C1.85829 8.19233 1.878 7.857 2.06081 7.60906C2.76137 6.65893 2.76532 5.3529 2.06026 4.40613C1.87684 4.15984 1.85818 3.82783 2.01284 3.56254L2.12836 3.3644C2.28356 3.09818 2.58034 2.94758 2.88685 2.97951L2.98121 2.98934C4.10958 3.10689 5.18492 2.48307 5.64302 1.4452C5.76246 1.1746 6.03038 1 6.32617 1Z" stroke="#666666" stroke-miterlimit="10"/>
</svg>
