<svg width="25" height="24" viewBox="0 0 25 24" fill="none" xmlns="http://www.w3.org/2000/svg">
<rect width="24" height="24" transform="translate(0.507812 24) rotate(-90)" fill="white"/>
<path d="M6.50781 12C6.50781 10.8954 5.61238 10 4.50781 10C3.40324 10 2.50781 10.8954 2.50781 12C2.50781 13.1046 3.40324 14 4.50781 14C5.61238 14 6.50781 13.1046 6.50781 12Z" fill="#222222"/>
<path d="M14.5078 12C14.5078 10.8954 13.6124 10 12.5078 10C11.4032 10 10.5078 10.8954 10.5078 12C10.5078 13.1046 11.4032 14 12.5078 14C13.6124 14 14.5078 13.1046 14.5078 12Z" fill="#222222"/>
<path d="M22.5078 12C22.5078 10.8954 21.6124 10 20.5078 10C19.4032 10 18.5078 10.8954 18.5078 12C18.5078 13.1046 19.4032 14 20.5078 14C21.6124 14 22.5078 13.1046 22.5078 12Z" fill="#222222"/>
</svg>
