<svg width="25" height="24" viewBox="0 0 25 24" fill="none" xmlns="http://www.w3.org/2000/svg">
<circle cx="12.9739" cy="12" r="12" fill="#DDDDDD"/>
<path d="M7.32788 8.64911V15.5438C7.32788 16.1784 7.8661 16.6929 8.53002 16.6929H18.1472C18.8111 16.6929 19.3493 16.1784 19.3493 15.5438V10.5054C19.3493 9.87072 18.8111 9.35625 18.1472 9.35625H12.6344C12.3156 9.35625 12.0098 9.23518 11.7844 9.01968L11.2864 7.83657C11.061 7.62107 10.7552 7.5 10.4364 7.5H8.53002C7.8661 7.5 7.32788 8.01447 7.32788 8.64911Z" stroke="white" stroke-width="1.5" stroke-linecap="square"/>
<path d="M11.2167 7.5H8.38816L7.32745 8.56071L6.97388 15.6321L8.03459 16.6929H13.6917L18.9953 16.3393L19.3489 15.6321L18.9953 9.62143L12.2774 9.26786L11.2167 7.5Z" fill="white"/>
</svg>
