<svg width="16" height="16" viewBox="0 0 16 16" fill="none" xmlns="http://www.w3.org/2000/svg">
<path d="M8.00803 1.08301C10.736 1.08301 13.2702 3.26754 13.2702 6.02348C13.2702 7.84514 12.6547 9.13304 11.6233 10.6346C10.5626 12.1788 9.23135 13.6398 8.51445 14.3908C8.2322 14.6864 7.76842 14.6864 7.48617 14.3908C6.76927 13.6398 5.43802 12.1788 4.37729 10.6346C3.3459 9.13304 2.73047 7.84514 2.73047 6.02348C2.73047 3.26754 5.26457 1.08301 7.99253 1.08301" stroke="#ACACAC" stroke-linecap="round"/>
<path d="M9.97679 6.31482C9.97679 7.41697 9.0949 8.32845 8.00372 8.32845C6.91253 8.32845 6.02441 7.41697 6.02441 6.31482C6.02441 5.21267 6.91253 4.37687 8.00372 4.37687C9.0949 4.37687 9.97679 5.21267 9.97679 6.31482Z" stroke="#ACACAC"/>
</svg>
