<svg width="22" height="22" viewBox="0 0 22 22" fill="none" xmlns="http://www.w3.org/2000/svg">
<path d="M18.6858 10.9995C18.6858 15.2446 15.2446 18.6858 10.9995 18.6858M18.6858 10.9995C18.6858 6.75453 15.2446 3.31327 10.9995 3.31327M18.6858 10.9995H20.8819M10.9995 18.6858C6.75453 18.6858 3.31327 15.2446 3.31327 10.9995M10.9995 18.6858V20.8819M3.31327 10.9995C3.31327 6.75453 6.75453 3.31327 10.9995 3.31327M3.31327 10.9995H1.11719M10.9995 3.31327V1.11719M14.2937 10.9995C14.2937 12.8188 12.8188 14.2937 10.9995 14.2937C9.18025 14.2937 7.70542 12.8188 7.70542 10.9995C7.70542 9.18025 9.18025 7.70542 10.9995 7.70542C12.8188 7.70542 14.2937 9.18025 14.2937 10.9995Z" stroke="#222222" stroke-width="1.5" stroke-linecap="round" stroke-linejoin="round"/>
</svg>
