<svg width="24" height="24" viewBox="0 0 24 24" fill="none" xmlns="http://www.w3.org/2000/svg">
<path d="M16.5 6.8726C16.5 9.56366 14.3733 11.7452 11.75 11.7452C9.12668 11.7452 7 9.56366 7 6.8726C7 4.18153 9.12668 2 11.75 2C14.3733 2 16.5 4.18153 16.5 6.8726Z" fill="#222222" stroke="#222222" stroke-width="1.5"/>
<path d="M21 22.2468V20.1455C21 16.8318 18.3137 14.1455 15 14.1455H9C5.68629 14.1455 3 16.8318 3 20.1455V22.2468" stroke="#222222" stroke-width="1.5" stroke-linecap="round"/>
<path d="M3 19C3 16.2386 5.23858 14 8 14H16C18.7614 14 21 16.2386 21 19V23H3V19Z" fill="#222222"/>
</svg>
