<svg width="24" height="26" viewBox="0 0 24 26" fill="none" xmlns="http://www.w3.org/2000/svg">
<path d="M3 21.1418V5.79859C3 5.15766 3.40722 4.58754 4.01351 4.37967L8.83784 2.72559L15.1622 4.72717L19.2466 4.02697C20.1629 3.86988 21 4.57568 21 5.50541V20.9763C21 21.7069 20.4736 22.3312 19.7535 22.4547L15.1622 23.2418L8.83784 21.2402L4.98649 22.5607C4.01289 22.8945 3 22.171 3 21.1418Z" fill="#222222"/>
<path d="M8.83784 2.72559L4.01351 4.37967C3.40722 4.58754 3 5.15766 3 5.79859V21.1418C3 22.171 4.01289 22.8945 4.98649 22.5607L8.83784 21.2402M8.83784 2.72559L15.1622 4.72717M8.83784 2.72559V21.2402M15.1622 4.72717L19.2466 4.02697C20.1629 3.86988 21 4.57568 21 5.50541V20.9763C21 21.7069 20.4736 22.3312 19.7535 22.4547L15.1622 23.2418M15.1622 4.72717V23.2418M8.83784 21.2402L15.1622 23.2418" stroke="#222222" stroke-width="1.5"/>
<path d="M14.1053 2.62861L10.781 1.60078C9.81598 1.30241 8.83789 2.02378 8.83789 3.03384V21.9383C8.83789 22.5961 9.26641 23.1771 9.89481 23.3714L13.2191 24.3992C14.1841 24.6976 15.1622 23.9762 15.1622 22.9662V4.06168C15.1622 3.40393 14.7337 2.82291 14.1053 2.62861Z" stroke="white" stroke-width="1.5"/>
</svg>
