<svg width="10" height="10" viewBox="0 0 10 10" fill="none" xmlns="http://www.w3.org/2000/svg">
<path d="M5.60217 8.74952L2.62 8.74952C2.04106 8.74952 1.7516 8.74952 1.53207 8.63328C1.35491 8.53948 1.21003 8.3946 1.11623 8.21745C0.999999 7.99792 0.999999 7.70845 0.999999 7.12952L1 4.14735C1 3.56841 1 3.27895 1.11623 3.05942C1.21003 2.88226 1.35491 2.73738 1.53207 2.64358C1.7516 2.52735 2.04106 2.52735 2.62 2.52735L5.60217 2.52734C6.1811 2.52734 6.47057 2.52734 6.6901 2.64358C6.86725 2.73738 7.01213 2.88226 7.10593 3.05942C7.22217 3.27894 7.22217 3.56841 7.22217 4.14735L7.22217 7.12952L7.22217 7.12952C7.22217 7.70845 7.22217 7.99792 7.10593 8.21745C7.01213 8.3946 6.86726 8.53948 6.6901 8.63328C6.47057 8.74952 6.1811 8.74952 5.60217 8.74952Z" stroke="#346FC9" stroke-linecap="round"/>
<path d="M2.77734 2.52776V2.37C2.77734 1.79107 2.77734 1.5016 2.89358 1.28207C2.98738 1.10491 3.13226 0.960035 3.30941 0.866234C3.52894 0.75 3.81841 0.75 4.39734 0.75H5.88843H7.37951C7.95845 0.75 8.24791 0.75 8.46744 0.866234C8.6446 0.960035 8.78948 1.10491 8.88328 1.28207C8.99951 1.5016 8.99951 1.79107 8.99951 2.37V5.35217C8.99951 5.9311 8.99951 6.22057 8.88328 6.4401C8.78948 6.61726 8.6446 6.76214 8.46744 6.85594C8.24791 6.97217 7.95845 6.97217 7.37951 6.97217H7.22175" stroke="#346FC9" stroke-linecap="round"/>
</svg>
