<svg width="12" height="12" viewBox="0 0 12 12" fill="none" xmlns="http://www.w3.org/2000/svg">
<g clip-path="url(#clip0_1_22819)">
<path d="M8.8654 2.18164C8.5386 2.18164 8.27148 2.44876 8.27148 2.77556C8.27148 3.10235 8.5386 3.36947 8.8654 3.36947C9.1922 3.36947 9.45932 3.10235 9.45932 2.77556C9.45932 2.44876 9.1922 2.18164 8.8654 2.18164Z" fill="#ACACAC"/>
<path d="M4.23633 5.43554C4.23633 4.33876 5.12963 3.44336 6.2285 3.44336C7.32491 3.44336 8.22068 4.33913 8.22068 5.43554C8.22068 6.53194 7.32491 7.42771 6.2285 7.42771C5.1321 7.42771 4.23633 6.53194 4.23633 5.43554Z" stroke="#ACACAC"/>
<path d="M7.70653 9.99716V10H4.16563C2.76516 10 1.625 8.85984 1.625 7.45937V3.41563C1.625 2.01516 2.76516 0.875 4.16563 0.875H8.20653C9.607 0.875 10.7472 2.01516 10.7472 3.41563V7.45653C10.7472 8.857 9.607 9.99716 8.20653 9.99716H7.70653Z" stroke="#ACACAC"/>
</g>
<defs>
<clipPath id="clip0_1_22819">
<rect width="10.125" height="10.125" fill="white" transform="translate(1.125 0.375)"/>
</clipPath>
</defs>
</svg>
