<svg width="12" height="12" viewBox="0 0 12 12" fill="none" xmlns="http://www.w3.org/2000/svg">
<path d="M1.62334 4.82295L5.18628 1.26001C5.61589 0.830396 6.2175 0.619362 6.82136 0.686457L9.04874 0.933944C9.97844 1.03724 10.7123 1.77115 10.8156 2.70085L11.0631 4.92824C11.1302 5.53209 10.9192 6.1337 10.4896 6.56331L6.92664 10.1262C6.1456 10.9073 4.87927 10.9073 4.09822 10.1262L1.62334 7.65137C0.842295 6.87032 0.842295 5.60399 1.62334 4.82295Z" stroke="#ACACAC"/>
<path d="M8.72467 4.08513C9.01756 3.79224 9.01756 3.31736 8.72467 3.02447C8.43177 2.73158 7.9569 2.73158 7.66401 3.02447C7.37111 3.31736 7.37111 3.79224 7.66401 4.08513C7.9569 4.37802 8.43177 4.37802 8.72467 4.08513Z" fill="#ACACAC"/>
</svg>
