<svg width="12" height="12" viewBox="0 0 12 12" fill="none" xmlns="http://www.w3.org/2000/svg">
<path d="M6.00602 0.8125C8.05199 0.8125 9.95261 2.4509 9.95261 4.51786C9.95261 5.8841 9.49104 6.85003 8.71749 7.97619C7.98071 9.04884 7.06988 10.0679 6.51223 10.66C6.23199 10.9576 5.76848 10.9576 5.48823 10.66C4.93059 10.0679 4.01976 9.04884 3.28297 7.97619C2.50942 6.85003 2.04785 5.8841 2.04785 4.51786C2.04785 2.4509 3.94843 0.8125 5.9944 0.8125" stroke="#ACACAC" stroke-linecap="round"/>
<path d="M7.48284 4.7366C7.48284 5.56321 6.82142 6.24683 6.00303 6.24683C5.18464 6.24683 4.51855 5.56321 4.51855 4.7366C4.51855 3.90999 5.18464 3.28314 6.00303 3.28314C6.82142 3.28314 7.48284 3.90999 7.48284 4.7366Z" stroke="#ACACAC"/>
</svg>
