<svg width="12" height="12" viewBox="0 0 12 12" fill="none" xmlns="http://www.w3.org/2000/svg">
<path d="M1.4248 5.25001V8.5C1.4248 9.60457 2.32024 10.5 3.4248 10.5H8.4248C9.52937 10.5 10.4248 9.60457 10.4248 8.5V5.25" stroke="#ACACAC"/>
<path fill-rule="evenodd" clip-rule="evenodd" d="M8.62576 5.35164C8.31269 5.7478 7.84078 6 7.31288 6C6.78499 6 6.31307 5.7478 6 5.35164C5.68693 5.7478 5.21501 6 4.68712 6C4.15922 6 3.68731 5.7478 3.37424 5.35164C3.06117 5.7478 2.58925 6 2.06135 6C1.2539 6 0.578286 5.41035 0.400361 4.61839C0.319813 4.25985 0.4451 3.93361 0.580387 3.70989L1.94468 1.45383C2.20977 1.01546 2.66931 0.75 3.16307 0.75H8.83693C9.3307 0.75 9.79024 1.01546 10.0553 1.45383L11.4196 3.70989C11.5549 3.93361 11.6802 4.25985 11.5996 4.61839C11.4217 5.41035 10.7461 6 9.93865 6C9.41075 6 8.93884 5.7478 8.62576 5.35164ZM2.60925 1.89887C2.72975 1.69961 2.93863 1.57895 3.16307 1.57895H8.83693C9.06137 1.57895 9.27025 1.69961 9.39075 1.89887L10.755 4.15493C10.8342 4.2859 10.8444 4.37707 10.833 4.42767C10.7372 4.85408 10.3726 5.17105 9.93865 5.17105C9.43109 5.17105 9.01963 4.73807 9.01963 4.20395H8.2319C8.2319 4.73807 7.82044 5.17105 7.31288 5.17105C6.80558 5.17105 6.39429 4.73851 6.39387 4.20477L5.60614 4.20395C5.60571 4.73769 5.19442 5.17105 4.68712 5.17105C4.17956 5.17105 3.7681 4.73807 3.7681 4.20395H2.98037C2.98037 4.73807 2.56891 5.17105 2.06135 5.17105C1.62736 5.17105 1.26276 4.85408 1.16696 4.42767C1.15559 4.37707 1.16577 4.2859 1.24496 4.15493L2.60925 1.89887Z" fill="#ACACAC" stroke="#ACACAC" stroke-width="0.2"/>
<path d="M4.5 10.9992V7.69922C4.5 7.42308 4.72386 7.19922 5 7.19922H7C7.27614 7.19922 7.5 7.42308 7.5 7.69922V10.9992" stroke="#ACACAC"/>
</svg>
